<svg xmlns="http://www.w3.org/2000/svg" width="1200" height="360" viewBox="0 0 1200 360">
  <defs>
    <linearGradient id="bg" x1="0" y1="0" x2="1" y2="1">
      <stop offset="0%" stop-color="#0ea5e9"/>
      <stop offset="100%" stop-color="#1e3a8a"/>
    </linearGradient>
  </defs>
  <rect width="1200" height="360" fill="url(#bg)"/>
  <!-- Globe illustration -->
  <g transform="translate(220,60)">
    <circle cx="120" cy="120" r="110" fill="rgba(255,255,255,0.12)" stroke="rgba(255,255,255,0.35)" stroke-width="3"/>
    <path d="M10,120 H230 M120,10 V230" stroke="rgba(255,255,255,0.45)" stroke-width="2"/>
    <path d="M30,70 C60,40 100,30 140,50 C180,70 210,100 200,140 C190,180 150,210 110,200 C70,190 40,160 30,120" fill="none" stroke="rgba(255,255,255,0.6)" stroke-width="3"/>
  </g>
  <!-- Minimal UI card shapes -->
  <g transform="translate(520,70)" fill="rgba(255,255,255,0.12)" stroke="rgba(255,255,255,0.3)">
    <rect x="0" y="0" width="280" height="160" rx="14"/>
    <rect x="300" y="20" width="220" height="70" rx="12"/>
    <rect x="300" y="110" width="220" height="50" rx="12"/>
  </g>
</svg>
